<svg xmlns="http://www.w3.org/2000/svg" viewBox="0 0 308.51 210.93"><defs><style>.cls-1,.cls-3,.cls-4,.cls-5,.cls-6,.cls-7,.cls-8,.cls-9{fill:#6090ad;}.cls-1,.cls-2{opacity:0.2;}.cls-3{opacity:0.4;}.cls-4{opacity:0.5;}.cls-5{opacity:0.6;}.cls-6{opacity:0.7;}.cls-7{opacity:0.8;}.cls-8{opacity:0.9;}</style></defs><g id="Layer_2" data-name="Layer 2"><g id="Layer_1-2" data-name="Layer 1"><circle class="cls-1" cx="300.49" cy="202.91" r="8.02"/><circle class="cls-1" cx="271.06" cy="202.91" r="8.02"/><circle class="cls-1" cx="241.9" cy="202.91" r="8.02"/><circle class="cls-1" cx="212.9" cy="202.91" r="8.02"/><circle class="cls-1" cx="183.76" cy="202.91" r="8.02"/><circle class="cls-1" cx="154.62" cy="202.91" r="8.02"/><circle class="cls-1" cx="125.47" cy="202.91" r="8.02"/><circle class="cls-1" cx="96.33" cy="202.91" r="8.02"/><circle class="cls-1" cx="66.3" cy="202.91" r="8.02"/><circle class="cls-1" cx="38.05" cy="202.91" r="8.02"/><circle class="cls-1" cx="8.02" cy="202.91" r="8.02"/><g class="cls-2"><circle class="cls-3" cx="241.9" cy="163.63" r="8.02"/><circle class="cls-4" cx="212.9" cy="163.63" r="8.02"/><circle class="cls-5" cx="183.76" cy="163.63" r="8.02"/><circle class="cls-6" cx="154.62" cy="163.63" r="8.02"/><circle class="cls-7" cx="125.47" cy="163.63" r="8.02"/><circle class="cls-8" cx="96.33" cy="163.63" r="8.02"/><circle class="cls-9" cx="66.3" cy="163.63" r="8.02"/><circle class="cls-9" cx="38.05" cy="163.63" r="8.02"/><circle class="cls-9" cx="8.02" cy="163.63" r="8.02"/></g><g class="cls-2"><circle class="cls-5" cx="183.76" cy="125.85" r="8.02"/><circle class="cls-6" cx="154.62" cy="125.85" r="8.02"/><circle class="cls-7" cx="125.47" cy="125.85" r="8.02"/><circle class="cls-8" cx="96.33" cy="125.85" r="8.02"/><circle class="cls-9" cx="66.3" cy="125.85" r="8.02"/><circle class="cls-9" cx="38.05" cy="125.85" r="8.02"/><circle class="cls-9" cx="8.02" cy="125.85" r="8.02"/></g><g class="cls-2"><circle class="cls-7" cx="125.58" cy="85.54" r="8.02"/><circle class="cls-8" cx="96.43" cy="85.54" r="8.02"/><circle class="cls-9" cx="66.41" cy="85.54" r="8.02"/><circle class="cls-9" cx="38.15" cy="85.54" r="8.02"/><circle class="cls-9" cx="8.12" cy="85.54" r="8.02"/></g><g class="cls-2"><circle class="cls-9" cx="66.41" cy="46.73" r="8.02"/><circle class="cls-9" cx="38.15" cy="46.73" r="8.02"/><circle class="cls-9" cx="8.12" cy="46.73" r="8.02"/></g><circle class="cls-1" cx="8.12" cy="8.02" r="8.02"/></g></g></svg>