<svg xmlns="http://www.w3.org/2000/svg" viewBox="0 0 345.47 493.98"><defs><style>.cls-1{isolation:isolate;}.cls-2{opacity:0.78;mix-blend-mode:color-dodge;}.cls-10,.cls-11,.cls-12,.cls-13,.cls-14,.cls-15,.cls-16,.cls-17,.cls-3,.cls-4,.cls-5,.cls-6,.cls-7,.cls-8,.cls-9{fill:none;stroke:#2ba567;stroke-miterlimit:10;}.cls-3{stroke-width:2.86px;}.cls-4{stroke-width:2.62px;}.cls-5{stroke-width:1.8px;}.cls-6{stroke-width:1.65px;}.cls-7{stroke-width:2.16px;}.cls-8{stroke-width:2.16px;}.cls-9{stroke-width:1.97px;}.cls-10{stroke-width:2.42px;}.cls-11{stroke-width:1.13px;}.cls-12{stroke-width:1.33px;}.cls-13{stroke-width:1.25px;}.cls-14{stroke-width:2.65px;}.cls-15{stroke-width:3.13px;}.cls-16{stroke-width:2.22px;}.cls-17{stroke-width:3.13px;}</style></defs><g class="cls-1"><g id="Layer_2" data-name="Layer 2"><g id="Layer_1-2" data-name="Layer 1"><g class="cls-2"><polyline class="cls-3" points="216.75 28.88 216.75 44.16 195.75 60.39 195.75 185.46 201.4 190.45 253.03 236.06 253.03 258.98 275.94 277.12 302.68 277.12 320.45 292.35"/><polyline class="cls-3" points="281.67 236.06 259.24 216.01 230.33 216.01"/><polyline class="cls-4" points="332.27 342.99 332.27 332.49 308.41 313.4 293.13 313.4 276.39 301.68 275.94 277.12"/><polyline class="cls-5" points="270.45 272.77 269.26 310.06 285.49 324.85 307.45 324.85 307.39 333.05"/><polyline class="cls-6" points="281.67 331.54 259.24 310.06 259.24 263.89"/><polyline class="cls-3" points="307.45 399.8 291.7 390.25 291.7 360.18 275.94 342.99 259.24 342.99 233.94 318.65 233.94 287.14 197.66 254.2 197.66 241.49 173.79 224.66"/><polyline class="cls-7" points="212.45 228.9 201 219.83 201.4 190.45"/><polyline class="cls-3" points="208.63 396.22 208.63 353.5 173.79 323.42 171.88 56.57 157.08 42.73 157.08 28.88"/><line class="cls-3" x1="197.66" y1="254.2" x2="197.66" y2="291.44"/><line class="cls-6" x1="185.72" y1="362.09" x2="185.72" y2="333.72"/><polyline class="cls-3" points="208.63 370.68 240.62 394.55 240.62 459"/><polyline class="cls-5" points="230.33 386.87 230.33 426.06 224.63 431.07"/><polyline class="cls-5" points="240.62 408.97 251.36 414.84 251.36 431.07 263.53 439.66"/><polyline class="cls-3" points="173.79 323.42 173.79 333.72 151.11 347.9 151.11 375.93 151.11 424.32 128.91 439.66 128.91 463.29"/><polyline class="cls-8" points="151.11 375.93 173.79 393.36 173.79 419.61 173.79 448.25"/><polyline class="cls-9" points="173.79 419.61 201 443.24 201 466.16"/><polyline class="cls-6" points="173.42 272.77 157.08 281.41 157.08 292.48"/><polyline class="cls-6" points="173.29 254.2 146.1 277.12 146.1 310.06"/><polyline class="cls-7" points="172.89 198.35 151.11 216.01 151.11 236.06"/><polyline class="cls-10" points="143.62 252.21 103.85 283.54 103.85 291.44"/><polyline class="cls-3" points="103.85 314.45 103.85 333.72 103.85 357.31 70.2 386.87 70.2 412.09 57.31 424.32"/><polyline class="cls-11" points="103.85 347.9 116.38 357.79 116.38 368.27 88.81 389.78 88.38 413.67"/><polyline class="cls-3" points="68.05 328.67 68.05 272.77 112.92 233.68 113.64 216.01 134.65 198.35 151.11 184.5 151.11 68.5 127 45.11 126.88 28.88"/><polyline class="cls-7" points="134.65 198.35 102.6 198.35 80.58 216.01"/><polyline class="cls-12" points="123.73 208.02 102.6 207.18 93.11 216.01 93.11 226.28"/><polyline class="cls-10" points="68.05 291.44 43.7 310.06 31.53 310.06 20.07 318.65"/><polyline class="cls-13" points="61.6 296.37 61.6 323.42 51.58 328.67 51.58 360.9"/><polyline class="cls-14" points="43.7 310.06 44.06 355.88 27.23 368.27"/><polyline class="cls-5" points="68.76 350.63 68.76 371.38 46.3 392.27"/><polyline class="cls-3" points="68.05 272.77 44.06 291.44 27.23 291.62"/><polyline class="cls-5" points="96.93 247.61 71.63 247.61 56.59 260.65 35.65 260.65"/><rect class="cls-3" x="212.45" y="1.43" width="12.17" height="27.45"/><rect class="cls-3" x="152.3" y="1.43" width="12.17" height="27.45"/><rect class="cls-3" x="120.8" y="1.43" width="12.17" height="27.45"/><circle class="cls-3" cx="288.95" cy="245.94" r="13.01"/><circle class="cls-3" cx="328.99" cy="302.15" r="13.01"/><circle class="cls-4" cx="332.27" cy="354.5" r="11.88"/><circle class="cls-5" cx="307.39" cy="341.22" r="8.18"/><circle class="cls-6" cx="286.97" cy="337.22" r="7.5"/><circle class="cls-4" cx="317.95" cy="406.06" r="11.88"/><circle class="cls-5" cx="270.16" cy="444.33" r="8.18"/><circle class="cls-5" cx="218.6" cy="435.74" r="8.18"/><circle class="cls-6" cx="186.73" cy="368.72" r="7.5"/><circle class="cls-15" cx="129.46" cy="478.21" r="14.2"/><circle class="cls-9" cx="200.66" cy="475.09" r="8.93"/><circle class="cls-8" cx="174" cy="457.01" r="9.82"/><circle class="cls-5" cx="115.49" cy="427.15" r="8.18"/><circle class="cls-5" cx="129.81" cy="395.64" r="8.18"/><circle class="cls-5" cx="98.3" cy="438.61" r="8.18"/><circle class="cls-11" cx="88.38" cy="418.83" r="5.15"/><polyline class="cls-5" points="129.81 387.47 129.81 358.03 103.85 336.55"/><polyline class="cls-5" points="129.81 364.95 96.45 393.36 97.25 430.51"/><polyline class="cls-5" points="129.81 375.93 103.85 397.41 103.85 419.61 109.39 421.71"/><circle class="cls-16" cx="50.57" cy="430.98" r="10.07"/><circle class="cls-5" cx="41.02" cy="398.51" r="8.18"/><circle class="cls-10" cx="68.29" cy="338.74" r="10.99"/><circle class="cls-13" cx="51.14" cy="366.53" r="5.68"/><circle class="cls-10" cx="103.85" cy="303.47" r="10.99"/><circle class="cls-17" cx="198" cy="304.45" r="14.19"/><circle class="cls-14" cx="19.75" cy="376.9" r="12.02"/><circle class="cls-10" cx="12.2" cy="326.38" r="10.99"/><circle class="cls-5" cx="27.23" cy="259.67" r="8.18"/><circle class="cls-5" cx="19.06" cy="291.62" r="8.18"/><circle class="cls-13" cx="34.45" cy="275.68" r="5.68"/><line class="cls-13" x1="64.46" y1="275.56" x2="40.12" y2="275.56"/><circle class="cls-7" cx="150.75" cy="245.45" r="9.82"/><circle class="cls-12" cx="94.6" cy="232.22" r="6.03"/><circle class="cls-7" cx="73.81" cy="222.4" r="9.82"/><circle class="cls-7" cx="220.51" cy="235.86" r="9.82"/><polyline class="cls-3" points="233.94 318.65 233.94 351.76 261.92 374.32 261.92 382.16"/><circle class="cls-3" cx="262.94" cy="394.17" r="13.01"/><circle class="cls-3" cx="240.62" cy="472" r="13.01"/><circle class="cls-3" cx="209.59" cy="409.23" r="13.01"/><circle class="cls-6" cx="157.08" cy="299.98" r="7.5"/><circle class="cls-6" cx="146.1" cy="317.55" r="7.5"/></g></g></g></g></svg>