<svg id="Layer_1" data-name="Layer 1" xmlns="http://www.w3.org/2000/svg" viewBox="0 0 1920 1080"><defs><style>.cls-1,.cls-2,.cls-3,.cls-4{fill:none;stroke:#000;stroke-miterlimit:10;}.cls-2{stroke-width:0.83px;}.cls-3{stroke-width:1.31px;}.cls-4{stroke-width:0.54px;}</style></defs><path d="M1920,264.64V1080H0V0H1602.65a232.19,232.19,0,0,0-5.74,51.47c0,128,103.8,231.83,231.83,231.83A231,231,0,0,0,1920,264.64ZM1797.09,869.51a95,95,0,1,0-95,95A95,95,0,0,0,1797.09,869.51ZM493.5,188.32a95,95,0,1,0-95,95A95,95,0,0,0,493.5,188.32ZM371.38,847.55A146.55,146.55,0,1,0,224.83,994.11,146.55,146.55,0,0,0,371.38,847.55Z"/><polyline class="cls-1" points="1920 264.64 1920 1080 0 1080 0 0 1602.65 0"/><path class="cls-2" d="M371.38,847.55A146.55,146.55,0,1,1,224.83,701,146.56,146.56,0,0,1,371.38,847.55Z"/><path class="cls-3" d="M1920,264.64a231,231,0,0,1-91.26,18.66c-128,0-231.83-103.8-231.83-231.83A232.19,232.19,0,0,1,1602.65,0"/><circle class="cls-4" cx="1702.11" cy="869.51" r="94.98"/><circle class="cls-4" cx="398.52" cy="188.32" r="94.98"/></svg>