<svg id="Layer_1" data-name="Layer 1" xmlns="http://www.w3.org/2000/svg" xmlns:xlink="http://www.w3.org/1999/xlink" viewBox="0 0 940.97 940.97"><defs><style>.cls-1{fill:none;}.cls-2{clip-path:url(#clip-path);}.cls-3{fill:#fff;}</style><clipPath id="clip-path" transform="translate(-69.51 -69.51)"><path class="cls-1" d="M591.31,363.15a50.4,50.4,0,1,0-50.4,50.4A50.46,50.46,0,0,0,591.31,363.15Zm-88.07,0a37.67,37.67,0,1,1,37.67,37.66A37.71,37.71,0,0,1,503.24,363.15Zm37.3,317.9,6-17.88a320.49,320.49,0,0,0,0-205.28l-6-17.88-6,17.88a320.49,320.49,0,0,0,0,205.28Zm0-199a307.85,307.85,0,0,1,0,157,307.56,307.56,0,0,1,0-156.95ZM956.78,651.58a276,276,0,0,0-59.33-60,6.37,6.37,0,1,0-7.58,10.23,263.53,263.53,0,0,1,53.43,52.93,261.93,261.93,0,0,1-204,77.09c-39.89-2.69-76-16.31-104.32-39.39a156.52,156.52,0,0,1-23.6-23.79,274.18,274.18,0,0,0,61.91,9l.43,1.15.44-1.12c2.46.07,4.93.1,7.39.1A275.5,275.5,0,0,0,938.17,502.17l1.93-4.94-4.5-2.79a276.55,276.55,0,0,0-76.74-32.65,6.37,6.37,0,0,0-3.16,12.34,263.46,263.46,0,0,1,68.63,28.39A262.7,262.7,0,0,1,679.13,665l.63-1.56a148,148,0,0,0,10.14-45.6A275.38,275.38,0,0,0,855.5,356.17l-.17-5.3-5.24-.79a276.22,276.22,0,0,0-83.39.12,6.36,6.36,0,0,0,1.94,12.58,263.55,263.55,0,0,1,74.26-.86A262.64,262.64,0,0,1,690.12,603.83a148.16,148.16,0,0,0-8.89-46.21A275.34,275.34,0,0,0,733.7,260.2l-2.09-4.87-5.17,1.18A276.29,276.29,0,0,0,648.82,287a6.36,6.36,0,0,0,6.39,11,263.44,263.44,0,0,1,68.84-27.84,262.56,262.56,0,0,1-48.23,274.52,150,150,0,0,0-35.45-47.34,310.54,310.54,0,0,0-10.51-226,0,0,0,0,1,0,0c-.09-.2-.18-.41-.28-.62,0,0,0,0,0,0A310.19,310.19,0,0,0,545,159.48l-4.08-3.39-4.08,3.39a310.23,310.23,0,0,0-84.48,111c-.08.18-.16.35-.23.53a309.43,309.43,0,0,0-27.07,126.81q0,13.92,1.24,27.67a310.08,310.08,0,0,0,15.17,71.89,149.84,149.84,0,0,0-35.72,47.93A262.59,262.59,0,0,1,357,270.19,263.33,263.33,0,0,1,425.86,298a6.37,6.37,0,1,0,6.39-11,276.29,276.29,0,0,0-77.62-30.48l-5.17-1.17-2.09,4.87a275.47,275.47,0,0,0,53,298,148.33,148.33,0,0,0-8.66,46A262.6,262.6,0,0,1,238.18,362a263.48,263.48,0,0,1,74.25.86,6.37,6.37,0,0,0,1.94-12.59,276.8,276.8,0,0,0-83.38-.12l-5.25.8-.17,5.29A275.34,275.34,0,0,0,392,618.25a148.3,148.3,0,0,0,9.14,42.7l1.55,4.11A262.66,262.66,0,0,1,156.75,502.55a263.6,263.6,0,0,1,68.62-28.39,6.36,6.36,0,1,0-3.16-12.33,275.94,275.94,0,0,0-76.73,32.65L141,497.26l1.92,4.94A275.08,275.08,0,0,0,468.31,669.06,155.14,155.14,0,0,1,445.65,692c-28.44,23.38-64.72,37.17-104.92,39.88a261.9,261.9,0,0,1-204-77.09,263.73,263.73,0,0,1,53.42-52.93,6.36,6.36,0,1,0-7.57-10.23,276.07,276.07,0,0,0-59.34,60l-3.11,4.28,3.66,3.84a274.6,274.6,0,0,0,199.18,85.47c6.19,0,12.42-.21,18.64-.63,1.56-.1,3.12-.23,4.66-.37l1.36-.12c1.14-.11,2.27-.22,3.41-.35l1.38-.15c1.27-.16,2.55-.31,3.81-.48l.77-.1c1.6-.22,3.19-.46,4.79-.71l.11,0c1.52-.24,3-.5,4.53-.77l.76-.15c1.38-.25,2.75-.52,4.11-.8l.54-.11c3.17-.67,6.32-1.41,9.43-2.21a195.7,195.7,0,0,0,38.63-14.43,181,181,0,0,0,33.87-22C485.48,675.71,506,640.13,513,598.91l.51-3-2-2.28a297.44,297.44,0,0,1-49-314.67,529.3,529.3,0,0,1,156.94.3,297.45,297.45,0,0,1-50.61,316.08l-2.06,2.31.54,3.05c7.36,40.74,28,75.88,59.59,101.62C650,721.1,677.71,734,708.33,740.42l.22.05c1.46.31,2.92.59,4.39.86l.64.13,4.5.77.19,0q2.4.39,4.83.72l.52.07c1.35.18,2.69.34,4,.5l1.32.15c1.15.13,2.3.24,3.44.35l1.34.12c1.54.14,3.1.27,4.65.37q9.35.63,18.64.63A274.59,274.59,0,0,0,956.23,659.7l3.67-3.84ZM480,652.39a261.16,261.16,0,0,1-68.46,12.42l1.49-3.75a135.94,135.94,0,0,1,16.36-29.82,273.93,273.93,0,0,0,57.22,9Q483.55,646.47,480,652.39Zm12-24.69a261.47,261.47,0,0,1-53.86-7.38,137.76,137.76,0,0,1,18-16.83,276,276,0,0,0,37.62,19.27C493.24,624.42,492.63,626.07,492,627.7Zm3.43-33.29q2.2,2.67,4.46,5.3c-.69,3.65-1.48,7.23-2.39,10.77a259.88,259.88,0,0,1-29.89-15A136.4,136.4,0,0,1,488,585Q491.63,589.79,495.43,594.41ZM446.2,510.3a308.48,308.48,0,0,0,34.14,64.12A149.76,149.76,0,0,0,408.27,641,136.65,136.65,0,0,1,446.2,510.3ZM540,260.54A543.34,543.34,0,0,0,469,265.2a297.12,297.12,0,0,1,72-92.48A297.09,297.09,0,0,1,613,265.47,543.93,543.93,0,0,0,540,260.54Zm95.65,249.77A136.68,136.68,0,0,1,673,643.41,150,150,0,0,0,601.08,575,308.59,308.59,0,0,0,635.65,510.31Zm-55.22,91.15q6.77-7.74,13-15.87a134.45,134.45,0,0,1,19.48,10.22,259.85,259.85,0,0,1-30.26,15.05C581.78,607.77,581.07,604.63,580.43,601.46Zm5.89,21.65a274.39,274.39,0,0,0,37.93-19.25A135.89,135.89,0,0,1,642,620.5a260.65,260.65,0,0,1-54,7.18Q587.1,625.42,586.32,623.11Zm7.1,17.14a273.33,273.33,0,0,0,57.37-8.8,135.59,135.59,0,0,1,17.09,31.91l.5,1.37a261.26,261.26,0,0,1-68.65-12.82Q596.33,646.23,593.42,640.25ZM468.26,831.7c-.35,1-.8,2.49-1.35,4.54s-1,3.84-1.23,5.39c-.16-1-.52-2.58-1.07-4.67s-1.07-3.81-1.56-5.14L453.7,804h-7.54l15.63,44.8h7.72L485.2,804h-7.6Zm-47.09-28.44q-10.14,0-15.61,6t-5.47,17q0,11.1,5.44,17.12t15.58,6q10,0,15.49-6.06t5.47-17q0-11-5.45-17T421.17,803.26ZM431,838.9q-3.33,4.23-9.86,4.23t-9.9-4.27q-3.33-4.27-3.34-12.55t3.36-12.51q3.36-4.26,9.94-4.26T431,813.8q3.28,4.26,3.29,12.51T431,838.9Zm-1.92,84.23h5.6V878.28h-5.6Zm90.24-74.36h7.78l-16.76-45h-8l-16.76,45h7.72l4.38-12.44h17.14ZM499.83,830l4.05-11.67a70.22,70.22,0,0,0,2.42-8.25q.3,1.23,1.11,3.87c.55,1.75,1,3,1.28,3.86l4.2,12.19ZM196.21,848.77h25.34v-6.22h-18V828.48h16.89v-6.13H203.53V810.16h18V804H196.21Zm-54.94,0h7.33V804h-7.33Zm19.53,0h25.35v-6.22h-18V828.48H185v-6.13H168.13V810.16h18V804H160.8Zm122.9,0H291V804H283.7Zm-52.09,0H257v-6.22h-18V828.48h16.88v-6.13H238.94V810.16h18V804H231.61Zm165.75,42.09c0-8.28-5.73-12.58-16.81-12.58H369v44.85h5.6v-19.3h7.44L393,923.13h6.71l-12.12-20.28C394,901,397.36,897.25,397.36,890.86Zm-16.16,8.6h-6.59V882.71h5.87c7.63,0,10.89,2.48,10.89,8.15C391.37,897.05,387.65,899.46,381.2,899.46Zm-22.37-86.39h.25l22,35.7h9V804h-6.71v23.47q0,2.49.18,6.91c.12,2.95.21,4.66.25,5.13h-.19l-22-35.51h-8.89v44.8h6.65V825.48q0-4.72-.43-10.42Zm-25,14.37q0,2.49.18,6.91t.24,5.13h-.18l-22-35.51h-8.89v44.8h6.65V825.48q0-4.72-.43-10.42l-.15-2h.24l22,35.7h9V804h-6.71Zm-8.45,69.74c-8.09-2.47-10-4.36-10-8.34,0-4.37,3.59-6.65,8.35-6.65a15.47,15.47,0,0,1,10.3,3.91l3.06-3.45c-3.65-3.33-7.5-5.15-13.62-5.15-8.15,0-13.89,4.82-13.89,11.54s4.37,10.16,13.17,12.84c7.69,2.34,9.91,4.36,9.91,9,0,5.54-4.43,8.35-9.91,8.35a17.5,17.5,0,0,1-11.86-4.57l-3.13,3.52a20.84,20.84,0,0,0,15.06,5.74c9.84,0,15.71-5.41,15.71-13.23C338.57,902.27,332.76,899.4,325.4,897.18Zm425.15-18.9L736,923.13h5.73l3.52-11.48h17.47l3.46,11.48h6l-14.47-44.85ZM746.64,907,754,883l7.3,24.06ZM932,827.44q0,2.49.18,6.91c.12,2.95.2,4.66.25,5.13h-.19l-22-35.51h-8.89v44.8H908V825.48q0-4.72-.43-10.42l-.15-2h.24l22,35.7h9V804H932ZM765.17,803.78l-16.77,45h7.72l4.39-12.44h17.13l4.47,12.44h7.79l-16.77-45ZM762.65,830l4.05-11.67a68.35,68.35,0,0,0,2.42-8.25c.2.82.58,2.11,1.12,3.87s1,3,1.27,3.86l4.2,12.19Zm-49.19,48.27H707l-17.47,20.86,18.12,24h7l-18.57-24.32ZM742.11,804H735.4v23.47q0,2.49.18,6.91c.13,2.95.21,4.66.25,5.13h-.19l-22-35.51h-8.89v44.8h6.65V825.48q0-4.72-.43-10.42l-.15-2h.25l22,35.7h9Zm128.38-.71q-10.14,0-15.61,6t-5.47,17q0,11.1,5.44,17.12t15.58,6q10,0,15.49-6.06t5.47-17q0-11-5.45-17T870.49,803.26Zm9.79,35.64q-3.31,4.23-9.85,4.23t-9.9-4.27q-3.35-4.27-3.34-12.55t3.36-12.51q3.35-4.26,9.94-4.26t9.82,4.26q3.3,4.26,3.3,12.51T880.28,838.9Zm-367.4,39.38h-5.61v44.85h23.47l.65-5H512.88Zm319.2-29.51h7.33V804h-7.33Zm-40.92-38.52h13.18v38.52h7.32V810.25h13.18V804H791.16ZM576.59,804h-7.33v44.8h7.33Zm-8,74.31-14.53,44.85h5.73l3.52-11.48H580.8l3.46,11.48h6l-14.48-44.85ZM564.7,907,572.07,883l7.3,24.06ZM562,804H528.34v6.28h13.18v38.52h7.32V810.25H562Zm82,99.41c0,5.54.58,12.38.71,13.62l-19-38.72h-7.37v44.85h5.28V901.49a170.35,170.35,0,0,0-.78-17l18.9,38.66h7.57V878.28H644Zm25.15-75.94q0,2.49.18,6.91t.24,5.13h-.18l-22-35.51h-8.89v44.8h6.65V825.48q0-4.72-.43-10.42l-.15-2h.24l22,35.7h9V804h-6.71Zm14.42,95.69h5.6V878.28h-5.6Zm-55-96.82q0-11-5.46-17t-15.44-6q-10.14,0-15.61,6t-5.48,17q0,11.1,5.44,17.12t15.59,6q10,0,15.49-6.06T628.57,826.31ZM617.46,838.9q-3.33,4.23-9.85,4.23t-9.9-4.27q-3.35-4.27-3.34-12.55t3.35-12.51q3.36-4.26,9.95-4.26t9.82,4.26q3.3,4.26,3.3,12.51T617.46,838.9Z"/></clipPath></defs><g class="cls-2"><rect class="cls-3" width="940.97" height="940.97"/></g></svg>